<svg enable-background="new 0 0 111.63 110.51" viewBox="0 0 111.63 110.51" xmlns="http://www.w3.org/2000/svg"><g fill="#fff"><path d="m79.1 23.56c0-.9-.37-1.77-1.03-2.39l-6.77-6.37c-.61-.57-1.41-.89-2.25-.9l-36.84-.19c-.9 0-1.71.33-2.33.94-.63.61-.98 1.43-.98 2.31l-.3 57.5c0 .87.33 1.7.96 2.32.62.62 1.44.96 2.32.97l43.63.23c0 .01.01 0 .02 0 1.81 0 3.29-1.46 3.3-3.25zm-8.36-7.03 5.6 5.23-5.63-.03zm6.76 58.19c-.01 1.07-.89 1.93-1.98 1.93l-43.63-.23c-.53 0-1.02-.21-1.39-.58s-.57-.86-.57-1.38c0 0 .3-57.34.3-57.5.01-1.03.94-1.97 1.98-1.93l36.83.19c.13 0 .26.01.38.04l-.04 7.12c0 .37.29.66.66.67 0 0 7.45.04 7.66.04.17.01-.19 50.13-.2 51.63z"/><path d="m42.27 29.03h.03c1.28 0 2.48-.51 3.39-1.43s1.41-2.15 1.42-3.46c.01-2.71-2.13-4.92-4.78-4.93-.01 0-.02 0-.03 0-1.28 0-2.48.51-3.39 1.43s-1.41 2.15-1.42 3.46.48 2.54 1.38 3.47 2.11 1.45 3.4 1.46zm-2.4-7.45c.63-.64 1.48-1.04 2.43-1.04h.02c1.92.01 3.47 1.63 3.46 3.6-.01 1.9-1.57 3.58-3.5 3.56-.93 0-1.8-.38-2.45-1.06-.66-.68-1.02-1.58-1.01-2.54 0-.96.4-1.86 1.05-2.52z"/><path d="m35.22 40.1 14.1.06h.01c.42 0 .82-.18 1.1-.5.27-.32.4-.74.34-1.15l-.01-.09c-.41-2.79-1.19-7.99-5.91-8.18-1.35-.05-2.59-.05-3.67-.04-.55 0-1.07.01-1.56 0-.02 0-.03 0-.05 0-4.36 0-5.3 5.54-5.75 8.21-.07.42.05.84.32 1.16.24.34.65.53 1.08.53zm4.33-8.56h.03 1.58c1.08-.01 2.29-.01 3.61.04 3.63.15 4.27 4.46 4.66 7.05l.01.09c0 .03 0 .06-.03.09-.02.02-.05.04-.1.04l-14.1-.06c-.05 0-.08-.02-.1-.04-.02-.03-.03-.06-.03-.09.44-2.5 1.22-7.12 4.47-7.12z"/><path d="m55.19 26.93 16.74.09c.37 0 .66-.29.66-.66s-.29-.66-.66-.67l-16.74-.09c-.36 0-.66.29-.66.66 0 .36.29.66.66.67z"/><path d="m55.16 31.28 19.49.1c.36 0 .66-.29.66-.66s-.29-.66-.66-.67l-19.49-.1c-.36 0-.66.29-.66.66s.3.66.66.67z"/><path d="m71.48 34.41-16.17-.09c-.36 0-.66.29-.66.66s.29.66.66.67l16.17.09c.36 0 .66-.29.66-.66s-.29-.67-.66-.67z"/><path d="m43.64 60.37s-2.73-.01-2.74-.01c-.36 0-.66.29-.66.66 0 0-.06 11.96-.06 12 0 .37.29.66.66.67l2.74.01c.36 0 .66-.29.66-.66l.06-12c0-.37-.29-.67-.66-.67zm-.73 12-1.41-.01.06-10.67 1.41.01z"/><path d="m38.33 63.88s-2.73-.01-2.74-.01c-.37 0-.66.29-.66.66l-.04 8.47c0 .37.29.66.66.67l2.74.01c.36 0 .66-.29.66-.66l.04-8.46c.01-.38-.29-.68-.66-.68zm-.7 8.46-1.41-.01.04-7.14 1.41.01z"/><path d="m74.96 64.07-26.63-.14c-.36 0-.66.29-.66.66s.29.66.66.67l26.63.14c.36 0 .66-.29.66-.66s-.29-.67-.66-.67z"/><path d="m48.31 68.65 23.88.13c.36 0 .66-.29.66-.66s-.29-.66-.66-.67l-23.88-.13c-.36 0-.66.29-.67.66 0 .37.3.67.67.67z"/><path d="m74.25 70.97-25.95-.25s0 0-.01 0c-.36 0-.66.29-.66.66s.29.67.66.67l25.95.25h.01c.36 0 .66-.29.66-.66s-.3-.67-.66-.67z"/><path d="m46.07 50.46-6.45-2.59c-.16-.06-.33-.06-.49 0 0 0-6.45 2.57-6.46 2.57-.52.21-.58 1 0 1.23l2.21.89-.01 1.89c0 .76.52 1.44 1.48 1.91.81.4 1.87.62 2.99.62h.05c1.1 0 2.15-.21 2.95-.59.97-.46 1.5-1.13 1.51-1.9l.01-1.93s2.19-.87 2.21-.88c.55-.21.55-1.01 0-1.22zm-3.54 4.03c0 .21-.3.49-.75.71-.62.29-1.48.46-2.38.46h-.04c-.91 0-1.79-.18-2.41-.49-.45-.22-.74-.5-.74-.72l.01-1.37 2.92 1.17c.08.03.16.05.25.05.08 0 .17-.02.25-.05l2.92-1.16zm-3.16-1.56-4.67-1.87 4.67-1.86 4.67 1.87z"/><path d="m71.41 49.34c.36 0 .66-.29.66-.66s-.29-.66-.66-.67l-22.99-.11c-.36 0-.66.29-.66.66s.29.66.66.67l22.99.11c-.01 0 0 0 0 0z"/><path d="m48.87 53.11 15.92.08c.36 0 .66-.29.66-.66s-.29-.66-.66-.67l-15.92-.08c-.36 0-.66.29-.66.66s.29.67.66.67z"/><path d="m48.85 56.76 19.54.1c.36 0 .66-.29.66-.66s-.29-.66-.66-.67l-19.54-.1c-.36 0-.66.29-.66.66s.29.67.66.67z"/></g><path d="m80.76 84.42 6.53 14.01c.28.6-.22 1.28-.81 1.11l-2.9-.85c-.28-.08-.57.08-.67.37l-1.1 3.08c-.22.62-1.01.67-1.29.07l-6.56-15.25-6.51 15.25c-.28.6-1.07.55-1.29-.07l-1.1-3.08c-.1-.29-.39-.45-.67-.37l-2.9.85c-.59.17-1.09-.51-.81-1.11l6.53-14.01" style="fill:#d6d648;stroke:#d6d648;stroke-width:1.7466;stroke-linecap:round;stroke-linejoin:round;stroke-miterlimit:10"/><path d="m74.41 63.83 1.2 1.47c.18.22.5.27.73.12l1.6-1.03c.3-.19.69-.06.82.27l.69 1.77c.1.26.39.41.66.34l1.84-.48c.34-.09.68.16.7.51l.11 1.9c.02.28.24.51.53.53l1.9.11c.35.02.6.36.51.7l-.48 1.84c-.07.27.07.56.34.66l1.77.69c.33.13.46.52.27.82l-1.03 1.6c-.15.24-.1.55.12.73l1.47 1.2c.27.22.27.64 0 .86l-1.47 1.2c-.22.18-.27.5-.12.73l1.03 1.6c.19.3.06.69-.27.82l-1.77.69c-.26.1-.41.39-.34.66l.48 1.84c.09.34-.16.68-.51.7l-1.9.11c-.28.02-.51.24-.53.53l-.11 1.9c-.02.35-.36.6-.7.51l-1.84-.48c-.27-.07-.56.07-.66.34l-.69 1.77c-.13.33-.52.46-.82.27l-1.6-1.03c-.24-.15-.55-.1-.73.12l-1.2 1.47c-.22.27-.64.27-.86 0l-1.2-1.47c-.18-.22-.5-.27-.73-.12l-1.6 1.03c-.3.19-.69.06-.82-.27l-.69-1.77c-.1-.26-.39-.41-.66-.34l-1.84.48c-.34.09-.68-.16-.7-.51l-.11-1.9c-.02-.28-.24-.51-.53-.53l-1.9-.11c-.35-.02-.6-.36-.51-.7l.48-1.84c.07-.27-.07-.56-.34-.66l-1.77-.69c-.33-.13-.46-.52-.27-.82l1.03-1.6c.15-.24.1-.55-.12-.73l-1.47-1.2c-.27-.22-.27-.64 0-.86l1.47-1.2c.22-.18.27-.5.12-.73l-1.03-1.6c-.19-.3-.06-.69.27-.82l1.77-.69c.26-.1.41-.39.34-.66l-.48-1.84c-.09-.34.16-.68.51-.7l1.9-.11c.28-.02.51-.24.53-.53l.11-1.9c.02-.35.36-.6.7-.51l1.84.48c.27.07.56-.07.66-.34l.69-1.77c.13-.33.52-.46.82-.27l1.6 1.03c.24.15.55.1.73-.12l1.2-1.47c.22-.27.63-.27.86 0z" style="fill:#4679bc;stroke:#d6d648;stroke-width:1.7466;stroke-linecap:round;stroke-linejoin:round;stroke-miterlimit:10"/><path d="m68.8 79.09 3.29 2.62c.28.23.7.18.92-.1l7.12-8.9" style="fill:none;stroke:#fff;stroke-width:1.7466;stroke-linecap:round;stroke-linejoin:round;stroke-miterlimit:10"/></svg>