<svg enable-background="new 0 0 111.63 110.51" viewBox="0 0 111.63 110.51" xmlns="http://www.w3.org/2000/svg"><g fill="#fff"><path d="m82.66 20.58c0-.9-.37-1.77-1.03-2.39l-6.77-6.37c-.61-.57-1.41-.89-2.25-.9l-36.84-.19c-.9 0-1.71.33-2.33.94-.63.61-.98 1.43-.98 2.31l-.3 57.5c0 .87.33 1.7.96 2.32.62.62 1.44.96 2.32.97l43.63.23c0 .01.01 0 .02 0 1.81 0 3.29-1.46 3.3-3.25zm-8.36-7.03 5.6 5.23-5.63-.03zm6.76 58.19c-.01 1.07-.89 1.93-1.98 1.93l-43.63-.23c-.53 0-1.02-.21-1.39-.58s-.57-.86-.57-1.38c0 0 .3-57.34.3-57.5.01-1.03.94-1.97 1.98-1.93l36.83.19c.13 0 .26.01.38.04l-.04 7.12c0 .37.29.66.66.67 0 0 7.45.04 7.66.04.17 0-.19 50.12-.2 51.63z"/><path d="m45.83 26.04h.03c1.28 0 2.48-.51 3.39-1.43s1.41-2.15 1.42-3.46c.01-2.71-2.13-4.92-4.78-4.93-.01 0-.02 0-.03 0-1.28 0-2.48.51-3.39 1.43s-1.41 2.15-1.42 3.46.48 2.54 1.38 3.47c.91.94 2.11 1.46 3.4 1.46zm-2.4-7.44c.63-.64 1.48-1.04 2.43-1.04h.02c1.92.01 3.47 1.63 3.46 3.6-.01 1.9-1.57 3.58-3.5 3.56-.93 0-1.8-.38-2.45-1.06-.66-.68-1.02-1.58-1.01-2.54 0-.96.4-1.86 1.05-2.52z"/><path d="m38.78 37.12 14.1.06h.01c.42 0 .82-.18 1.1-.5.27-.32.4-.74.34-1.15l-.01-.09c-.41-2.79-1.19-7.99-5.91-8.18-1.35-.05-2.59-.05-3.67-.04-.55 0-1.07.01-1.56 0-.02 0-.03 0-.05 0-4.36 0-5.3 5.54-5.75 8.21-.07.42.05.84.32 1.16.25.34.65.53 1.08.53zm4.33-8.57h.03 1.58c1.08-.01 2.29-.01 3.61.04 3.63.15 4.27 4.46 4.66 7.05l.01.09c0 .03 0 .06-.03.09-.02.02-.05.04-.1.04l-14.1-.06c-.05 0-.08-.02-.1-.04-.02-.03-.03-.06-.03-.09.44-2.5 1.22-7.12 4.47-7.12z"/><path d="m58.75 23.94 16.74.09c.37 0 .66-.29.66-.66s-.29-.66-.66-.67l-16.74-.09c-.36 0-.66.29-.66.66s.29.67.66.67z"/><path d="m58.73 28.29 19.49.1c.36 0 .66-.29.66-.66s-.29-.66-.66-.67l-19.49-.1c-.36 0-.66.29-.66.66-.01.37.29.67.66.67z"/><path d="m75.04 31.42-16.17-.09c-.36 0-.66.29-.66.66s.29.66.66.67l16.17.09c.36 0 .66-.29.66-.66s-.29-.66-.66-.67z"/><path d="m47.2 57.39s-2.73-.01-2.74-.01c-.36 0-.66.29-.66.66 0 0-.06 11.96-.06 12 0 .37.29.66.66.67l2.74.01c.36 0 .66-.29.66-.66l.06-12c0-.38-.29-.67-.66-.67zm-.73 11.99-1.41-.01.06-10.67 1.41.01z"/><path d="m41.9 60.89s-2.73-.01-2.74-.01c-.37 0-.66.29-.66.66l-.05 8.46c0 .37.29.66.66.67l2.74.01c.36 0 .66-.29.66-.66l.04-8.46c.01-.37-.29-.67-.65-.67zm-.71 8.46-1.41-.01.04-7.14 1.41.01z"/><path d="m78.52 61.09-26.63-.14c-.36 0-.66.29-.66.66s.29.66.66.67l26.63.14c.36 0 .66-.29.66-.66s-.29-.67-.66-.67z"/><path d="m51.87 65.66 23.88.13c.36 0 .66-.29.66-.66s-.29-.66-.66-.67l-23.88-.13c-.36 0-.66.29-.67.66.01.37.3.67.67.67z"/><path d="m77.81 67.99-25.95-.25s0 0-.01 0c-.36 0-.66.29-.66.66s.29.67.66.67l25.95.25h.01c.36 0 .66-.29.66-.66s-.3-.67-.66-.67z"/><path d="m49.64 47.47-6.45-2.59c-.16-.06-.33-.06-.49 0 0 0-6.45 2.57-6.46 2.57-.52.21-.58 1 0 1.23l2.21.89-.01 1.89c0 .76.52 1.44 1.48 1.91.81.4 1.87.62 2.99.62h.05c1.1 0 2.15-.21 2.95-.59.97-.46 1.5-1.13 1.51-1.9l.01-1.93s2.19-.87 2.21-.88c.54-.21.54-1 0-1.22zm-3.55 4.03c0 .21-.3.49-.75.71-.62.29-1.48.46-2.38.46h-.04c-.91 0-1.79-.18-2.41-.49-.45-.22-.74-.5-.74-.72l.01-1.37 2.92 1.17c.08.03.16.05.25.05.08 0 .17-.02.25-.05l2.92-1.16zm-3.16-1.56-4.67-1.87 4.67-1.86 4.67 1.87z"/><path d="m74.97 46.36c.36 0 .66-.29.66-.66s-.29-.66-.66-.67l-22.99-.12c-.36 0-.66.29-.66.66s.29.66.66.67z"/><path d="m52.43 50.13 15.92.08c.36 0 .66-.29.66-.66s-.29-.66-.66-.67l-15.91-.08c-.36 0-.66.29-.66.66-.01.37.29.67.65.67z"/><path d="m52.41 53.78 19.54.1c.36 0 .66-.29.66-.66s-.29-.66-.66-.67l-19.54-.1c-.36 0-.66.29-.66.66s.3.67.66.67z"/></g><path d="m61.18 88.6v16.83h-3.75v-16.83l-9.04 7.2v-4.27l10.93-8.69 10.89 8.69v4.27z" fill="#d6d648" stroke="#d6d648" stroke-miterlimit="10" stroke-width=".75"/></svg>