<svg enable-background="new 0 0 111.63 110.51" viewBox="0 0 111.63 110.51" xmlns="http://www.w3.org/2000/svg"><g stroke="#4679bc" stroke-linecap="round" stroke-linejoin="round" stroke-miterlimit="10" stroke-width="2.5149"><path d="m54.61 20.02v4.34c0 1.17-.95 2.11-2.11 2.11h-37.78c-2.64 0-4.78 2.14-4.78 4.78v37.15c0 2.64 2.14 4.78 4.78 4.78h61.43c2.64 0 4.78-2.14 4.78-4.78v-41.92-6.45c0-1.54-1.25-2.79-2.79-2.79h-20.74c-1.54-.01-2.79 1.24-2.79 2.78z" fill="#fff"/><path d="m65.14 30.55v4.34c0 1.17-.95 2.11-2.11 2.11h-37.78c-2.64 0-4.78 2.14-4.78 4.78v37.15c0 2.64 2.14 4.78 4.78 4.78h61.43c2.64 0 4.78-2.14 4.78-4.78v-41.93-6.45c0-1.54-1.25-2.79-2.79-2.79h-20.74c-1.54 0-2.79 1.25-2.79 2.79z" fill="#d6d648"/><path d="m75.38 40.8v4.34c0 1.17-.95 2.11-2.11 2.11h-37.78c-2.64 0-4.78 2.14-4.78 4.78v37.15c0 2.64 2.14 4.78 4.78 4.78h61.43c2.64 0 4.78-2.14 4.78-4.78v-41.93-6.45c0-1.54-1.25-2.79-2.79-2.79h-20.73c-1.55-.01-2.8 1.24-2.8 2.79z" fill="#fff"/></g><path d="m40.01 65.6c-.01-.03-.01-.07-.01-.1 0-.24.26-.39.48-.39.15 0 .29.07.33.24l2.33 8.6 2.32-8.6c.05-.17.18-.24.31-.24.23 0 .5.18.5.41 0 .03-.01.06-.01.08l-2.62 9.5c-.06.22-.28.34-.5.34-.21 0-.43-.1-.49-.34z"/><path d="m46.3 74.95c0-.03 0-.07.01-.1l2.63-9.51c.06-.22.28-.32.49-.32.23 0 .44.11.5.32l2.62 9.51c0 .03.01.06.01.08 0 .22-.28.41-.5.41-.14 0-.26-.07-.31-.24l-.58-2.16h-3.49l-.58 2.16c-.04.17-.18.24-.33.24-.21.01-.47-.15-.47-.39zm4.66-2.8-1.53-5.65-1.54 5.65z"/><path d="m56.34 65.96c-1.17 0-1.81.67-1.81 2.13v4.34c0 1.47.64 2.14 1.87 2.14 1.5 0 1.64-1.05 1.71-1.72.02-.22.15-.36.42-.36.29 0 .42.11.42.57 0 1.27-.97 2.37-2.63 2.37-1.42 0-2.61-.81-2.61-3v-4.34c0-2.17 1.21-2.98 2.65-2.98 1.65 0 2.6 1.08 2.6 2.34 0 .46-.13.56-.42.56s-.4-.15-.42-.35c-.04-.61-.28-1.7-1.78-1.7z"/><path d="m59.69 74.95c0-.03 0-.07.01-.1l2.63-9.51c.06-.22.28-.32.49-.32.23 0 .44.11.5.32l2.62 9.51c0 .03.01.06.01.08 0 .22-.28.41-.5.41-.14 0-.26-.07-.31-.24l-.58-2.16h-3.49l-.58 2.16c-.04.17-.18.24-.33.24-.2.01-.47-.15-.47-.39zm4.66-2.8-1.53-5.65-1.54 5.65z"/><path d="m71.52 74.81-3.5-7.58v7.75c0 .24-.21.36-.42.36s-.42-.13-.42-.36v-9.52c0-.25.2-.35.42-.35.3 0 .49.29.66.64l3.4 7.45v-7.76c0-.24.2-.34.42-.34.2 0 .42.1.42.34v9.54c0 .24-.21.36-.42.36-.24.01-.43-.25-.56-.53z"/><path d="m76.95 65.96c-1.17 0-1.81.67-1.81 2.13v4.34c0 1.47.64 2.14 1.87 2.14 1.5 0 1.64-1.05 1.71-1.72.02-.22.15-.36.42-.36.29 0 .42.11.42.57 0 1.27-.97 2.37-2.63 2.37-1.42 0-2.61-.81-2.61-3v-4.34c0-2.17 1.21-2.98 2.65-2.98 1.65 0 2.6 1.08 2.6 2.34 0 .46-.13.56-.42.56s-.4-.15-.42-.35c-.04-.61-.28-1.7-1.78-1.7z"/><path d="m81 65.44c0-.24.2-.34.42-.34.2 0 .42.1.42.34v9.54c0 .24-.21.36-.42.36s-.42-.13-.42-.36z"/><path d="m84.58 69.81h1.98c.2 0 .31.2.31.42 0 .18-.09.38-.31.38h-1.98v3.88h4.03c.2 0 .32.21.32.43 0 .2-.09.42-.32.42h-4.49c-.19 0-.38-.13-.38-.36v-9.52c0-.24.19-.35.38-.35h4.49c.23 0 .32.21.32.41 0 .24-.11.45-.32.45h-4.03z"/><path d="m94.05 72.64c0-3.11-4.18-1.6-4.18-5.01 0-2.04 1.5-2.55 2.67-2.55.95 0 2.12.35 2.12.85 0 .18-.14.52-.37.52-.24 0-.66-.53-1.76-.53-.93 0-1.83.38-1.83 1.62 0 2.61 4.18 1.13 4.18 5.01 0 1.99-1.11 2.89-2.66 2.89-1.61 0-2.58-1.01-2.58-1.51 0-.22.19-.52.38-.52.33 0 .58 1.16 2.16 1.16 1.17.01 1.87-.65 1.87-1.93z"/></svg>