<svg enable-background="new 0 0 111.63 110.51" viewBox="0 0 111.63 110.51" xmlns="http://www.w3.org/2000/svg" xmlns:xlink="http://www.w3.org/1999/xlink"><clipPath id="a"><path d="m47.94 80.72c-12.38 0-22.85-10.59-22.85-23.12 0-12.38 10.25-22.44 22.85-22.44 12.39 0 22.86 10.42 22.86 22.76 0 12.36-10.47 22.8-22.86 22.8z"/></clipPath><circle cx="84.91" cy="14.88" fill="#d6d648" r="9.73"/><g stroke-linecap="round" stroke-linejoin="round" stroke-miterlimit="10"><path d="m81.28 20.79v-10.44c0-.52.31-1 .79-1.18.4-.15.98-.25 1.81-.17 1.35.13 3.34 1.95 5.87 1.34v5.6c-2.86.98-4.42-.64-5.83-1.05-1.62-.47-2.64.55-2.64.55" fill="#fff" stroke="#4679bc" stroke-width="1.4626"/><circle cx="101.35" cy="35.82" fill="none" r="7.19" stroke="#fff" stroke-width="1.4626"/><path d="m97.72 36.57 1.87 1.49c.32.26.8.2 1.05-.12l3.88-4.85" fill="none" stroke="#fff" stroke-width="1.0561"/><circle cx="101.48" cy="53.51" fill="none" r="7.19" stroke="#fff" stroke-width="1.4626"/><path d="m98.14 54.43 1.87 1.49c.32.26.8.2 1.05-.12l3.88-4.85" fill="none" stroke="#fff" stroke-width="1.0561"/><path d="m84.94 27.53v14.87" fill="none" stroke="#fff" stroke-width="1.4626"/><path d="m84.94 52.83v-10.14-6.82h6.4" fill="none" stroke="#fff" stroke-width="1.4626"/><path d="m84.94 52.88h6.42" fill="#fff" stroke="#fff" stroke-width="1.4626"/><path d="m74.87 52.88h11.72" fill="#fff" stroke="#fff" stroke-width="1.4626"/></g><path d="m72.38 57.92c0-13.19-11.19-24.34-24.44-24.34-13.47 0-24.42 10.78-24.42 24.02 0 13.39 11.18 24.7 24.42 24.7 13.25 0 24.44-11.17 24.44-24.38zm-24.44 22.8c-12.38 0-22.85-10.59-22.85-23.12 0-12.38 10.25-22.44 22.85-22.44 12.39 0 22.86 10.42 22.86 22.76 0 12.36-10.47 22.8-22.86 22.8z" fill="#d6d648"/><path d="m29.05 83.38-.76-.76 2.8-2.8c4.67 3.6 10.51 5.75 16.85 5.75 15.24 0 27.64-12.4 27.64-27.64s-12.4-27.64-27.64-27.64-27.64 12.4-27.64 27.64c0 8.33 3.71 15.81 9.57 20.88l-2.69 2.69-.76-.76c-1.03-1.03-2.71-1.03-3.74 0l-18.94 18.94c-1.03 1.03-1.03 2.71 0 3.74l2.63 2.63c.52.52 1.19.77 1.87.77s1.35-.26 1.87-.77l1.97-1.97 16.97-16.97c1.03-1.03 1.03-2.7 0-3.73zm-7.17-25.45c0-14.37 11.69-26.06 26.06-26.06s26.06 11.69 26.06 26.06-11.69 26.06-26.06 26.06-26.06-11.69-26.06-26.06zm-12.88 47.01c-.42.42-1.09.42-1.51 0l-2.63-2.63c-.42-.42-.42-1.09 0-1.51l1.41-1.41 4.14 4.14zm18.94-18.94-16.41 16.41-4.14-4.14 16.41-16.41c.41-.41 1.09-.41 1.51 0l2.63 2.63c.41.42.41 1.09 0 1.51z" fill="#d6d648"/><path clip-path="url(#a)" d="m55.07 53.94-14.67-5.89c-.36-.15-.76-.15-1.12 0 0 0-14.66 5.84-14.69 5.85-1.18.47-1.31 2.28 0 2.8l5.03 2.02-.02 4.3c-.01 1.73 1.19 3.28 3.38 4.35 1.84.9 4.26 1.41 6.8 1.42h.11c2.51 0 4.89-.48 6.71-1.35 2.2-1.05 3.41-2.58 3.42-4.32l.02-4.38s4.99-1.99 5.03-2c1.24-.5 1.23-2.31 0-2.8zm-8.08 9.17c0 .49-.67 1.12-1.71 1.61-1.41.67-3.38 1.05-5.42 1.05h-.09c-2.07-.01-4.07-.42-5.49-1.11-1.03-.5-1.69-1.14-1.69-1.63l.02-3.11 6.64 2.67c.18.07.37.11.56.11s.38-.04.56-.11l6.64-2.64zm-7.17-3.54-10.62-4.27 10.63-4.23 10.61 4.26z" fill="#fff"/><path clip-path="url(#a)" d="m112.69 51.41c.83 0 1.5-.67 1.51-1.5 0-.83-.67-1.51-1.5-1.52l-52.31-.28h-.01c-.83 0-1.5.67-1.51 1.5 0 .83.67 1.51 1.5 1.52z" fill="#fff"/><path clip-path="url(#a)" d="m61.43 59.99 36.22.19h.01c.83 0 1.5-.67 1.51-1.5 0-.83-.67-1.51-1.5-1.52l-36.22-.19h-.01c-.83 0-1.5.67-1.51 1.5s.66 1.51 1.5 1.52z" fill="#fff"/><path clip-path="url(#a)" d="m61.38 68.29 44.46.23h.01c.83 0 1.5-.67 1.51-1.5 0-.83-.67-1.51-1.5-1.52l-44.46-.22h-.01c-.83 0-1.5.67-1.51 1.5 0 .83.67 1.51 1.5 1.51z" fill="#fff"/></svg>