<svg enable-background="new 0 0 364 83" viewBox="0 0 364 83" xmlns="http://www.w3.org/2000/svg"><path d="m48.58 4.11c-16.89 0-30.58 13.69-30.58 30.58 0 7.1 2.43 13.63 6.49 18.82l-9.37 9.37c-1.19-.06-2.39.34-3.3 1.25l-5.55 5.55c-1.7 1.7-1.7 4.45 0 6.15s4.45 1.7 6.15 0l5.55-5.55c.91-.91 1.31-2.11 1.25-3.3l9.25-9.25c5.38 4.7 12.41 7.55 20.11 7.55 16.89 0 30.58-13.69 30.58-30.58s-13.69-30.59-30.58-30.59zm-.2 54.9c-13.43 0-24.32-10.89-24.32-24.32s10.89-24.32 24.32-24.32 24.32 10.89 24.32 24.32-10.89 24.32-24.32 24.32z" fill="#d8c73b"/><g fill="#fff"><path d="m89.25 28.05v13c0 2.23.77 4.12 2.31 5.66s3.42 2.31 5.63 2.31 4.1-.77 5.66-2.31 2.35-3.43 2.35-5.66v-13h5.02v13c0 3.62-1.27 6.7-3.82 9.25s-5.62 3.82-9.21 3.82-6.67-1.27-9.21-3.82c-2.55-2.55-3.82-5.63-3.82-9.25v-13z"/><path d="m121.35 28.05v2.68c2.32-1.79 4.98-2.68 7.97-2.68 2.5 0 4.83.67 6.97 2.01l-3.75 3.75c-1.03-.49-2.1-.74-3.22-.74-2.23 0-4.12.78-5.66 2.35-1.54 1.56-2.31 3.44-2.31 5.63v13.07h-5.09v-13.07-13z"/><path d="m162.82 41.08c0 3.6-1.27 6.67-3.82 9.21s-5.62 3.82-9.21 3.82-6.67-1.27-9.21-3.82c-2.55-2.55-3.82-5.62-3.82-9.21s1.27-6.67 3.82-9.21c2.54-2.55 5.62-3.82 9.21-3.82s6.67 1.27 9.21 3.82 3.82 5.62 3.82 9.21zm-20.97 0c0 2.21.77 4.09 2.31 5.63s3.42 2.31 5.63 2.31 4.1-.77 5.66-2.31 2.35-3.42 2.35-5.63-.78-4.1-2.35-5.66c-1.56-1.56-3.45-2.35-5.66-2.35s-4.09.78-5.63 2.35c-1.54 1.56-2.31 3.45-2.31 5.66z"/><path d="m193.57 41.08c0 3.6-1.27 6.67-3.82 9.21-2.55 2.55-5.61 3.82-9.18 3.82-2.99 0-5.65-.91-7.97-2.75v16.48h-5.09v-26.8c0-3.57 1.27-6.63 3.82-9.18 2.54-2.55 5.62-3.82 9.21-3.82s6.67 1.27 9.21 3.82c2.55 2.55 3.82 5.63 3.82 9.22zm-20.97 0c0 2.21.77 4.09 2.31 5.63s3.42 2.31 5.63 2.31 4.1-.77 5.66-2.31 2.35-3.42 2.35-5.63-.78-4.1-2.35-5.66c-1.56-1.56-3.45-2.35-5.66-2.35s-4.09.78-5.63 2.35c-1.54 1.56-2.31 3.45-2.31 5.66z"/><path d="m203.36 28.05v2.68c2.32-1.79 4.98-2.68 7.97-2.68 2.5 0 4.82.67 6.97 2.01l-3.75 3.75c-1.03-.49-2.1-.74-3.22-.74-2.23 0-4.12.78-5.66 2.35-1.54 1.56-2.31 3.44-2.31 5.63v13.07h-5.09v-13.07-13z"/><path d="m243.96 41.05v13.07h-5.02v-2.75c-2.37 1.83-5.03 2.75-7.97 2.75-3.62 0-6.7-1.27-9.25-3.82s-3.82-5.62-3.82-9.21 1.27-6.67 3.82-9.21 5.62-3.82 9.21-3.82 6.67 1.27 9.21 3.82c2.55 2.53 3.82 5.59 3.82 9.17zm-20.97.03c0 2.21.77 4.09 2.31 5.63s3.42 2.31 5.63 2.31 4.1-.77 5.66-2.31 2.35-3.42 2.35-5.63-.78-4.1-2.35-5.66c-1.56-1.56-3.45-2.35-5.66-2.35s-4.09.78-5.63 2.35c-1.54 1.56-2.31 3.45-2.31 5.66z"/><path d="m256.16 19.34v8.71h7.97v5.02h-7.97v7.97c0 2.23.77 4.12 2.31 5.66s3.43 2.31 5.66 2.31v5.09c-3.62 0-6.7-1.27-9.25-3.82s-3.82-5.63-3.82-9.25v-7.97h-5.09v-5.02h5.09v-8.71h5.1z"/><path d="m293.81 28.05v2.48 2.55h-18.43c-.72 0-1.32.25-1.81.74s-.74 1.1-.74 1.81v.4c0 .72.24 1.31.74 1.78.49.47 1.09.7 1.81.7h10.85c2.1 0 3.89.75 5.36 2.25s2.21 3.29 2.21 5.39v.34c0 2.1-.74 3.9-2.21 5.39-1.47 1.5-3.26 2.25-5.36 2.25h-18.49v-5.09h18.49c.71 0 1.32-.24 1.81-.74.49-.49.74-1.09.74-1.81v-.34c0-.71-.25-1.32-.74-1.81s-1.1-.74-1.81-.74h-10.85c-2.1 0-3.9-.75-5.39-2.25-1.5-1.5-2.25-3.27-2.25-5.33v-.4c0-2.1.75-3.89 2.25-5.36s3.29-2.21 5.39-2.21z"/><path d="m304.94 28.05v13c0 2.23.77 4.12 2.31 5.66s3.42 2.31 5.63 2.31 4.1-.77 5.66-2.31 2.35-3.43 2.35-5.66v-13h5.02v10.99 2.01 13.07c0 3.57-1.27 6.64-3.82 9.21s-5.61 3.85-9.18 3.85v-5.09c2.19 0 4.06-.77 5.63-2.31 1.56-1.54 2.35-3.43 2.35-5.66v-2.75c-2.37 1.83-5.02 2.75-7.97 2.75-3.62 0-6.7-1.27-9.25-3.82s-3.82-5.63-3.82-9.25v-13z"/><path d="m358 41.05v13.07h-5.02v-2.75c-2.37 1.83-5.02 2.75-7.97 2.75-3.62 0-6.7-1.27-9.25-3.82s-3.82-5.62-3.82-9.21 1.27-6.67 3.82-9.21c2.54-2.55 5.62-3.82 9.21-3.82s6.67 1.27 9.21 3.82 3.82 5.59 3.82 9.17zm-20.97.03c0 2.21.77 4.09 2.31 5.63s3.42 2.31 5.63 2.31 4.1-.77 5.66-2.31 2.35-3.42 2.35-5.63-.78-4.1-2.35-5.66c-1.56-1.56-3.45-2.35-5.66-2.35s-4.09.78-5.63 2.35c-1.54 1.56-2.31 3.45-2.31 5.66z"/></g><path d="m60.42 19.9c3.65 3.12 5.88 6.99 6.68 11.61.13 1.07.2 2.14.2 3.22 0 1.47-.13 2.95-.4 4.42h-30.25c.87 2.21 2.31 4.02 4.32 5.43s4.29 2.11 6.83 2.11c2.28 0 4.39-.6 6.33-1.81l5.43 5.43c-3.49 2.68-7.4 4.02-11.76 4.02-4.62 0-8.71-1.44-12.26-4.32s-5.83-6.5-6.83-10.85c-.14-.47-.24-.94-.3-1.41v-.1c-.13-.94-.2-1.91-.2-2.91 0-1.07.1-2.14.3-3.22.47-3.08 1.62-5.86 3.47-8.34 1.84-2.48 4.15-4.42 6.94-5.83 2.78-1.41 5.74-2.11 8.89-2.11 4.75-.01 8.95 1.55 12.61 4.66zm-24.18 11.61h23.02c-.67-2.55-2.08-4.64-4.22-6.28s-4.57-2.46-7.29-2.46c-2.71 0-5.13.82-7.24 2.46s-3.53 3.73-4.27 6.28z" fill="#3779c1"/></svg>