<svg id="Livello_1" data-name="Livello 1" xmlns="http://www.w3.org/2000/svg" viewBox="0 0 263 60">
  <g>
    <path d="M35.65,4A22,22,0,0,0,18.31,39.54l-6.74,6.74a3.09,3.09,0,0,0-2.37.9l-4,4a3.13,3.13,0,0,0,4.42,4.42l4-4a3.09,3.09,0,0,0,.9-2.37l6.66-6.66A22,22,0,1,0,35.65,4ZM35.5,43.5A17.5,17.5,0,1,1,53,26,17.5,17.5,0,0,1,35.5,43.5Z" style="fill: #d8c73b"/>
    <g>
      <path d="M64.91,21.22v9.35a5.67,5.67,0,0,0,5.71,5.74,5.61,5.61,0,0,0,4.07-1.66,5.49,5.49,0,0,0,1.69-4.08V21.22H80v9.35a9.38,9.38,0,1,1-18.76,0V21.22Z" style="fill: #333"/>
      <path d="M88,21.22v1.93a9.12,9.12,0,0,1,5.74-1.93,9.22,9.22,0,0,1,5,1.45l-2.7,2.7a5.21,5.21,0,0,0-2.31-.53A5.7,5.7,0,0,0,88,30.57V40H84.33V21.22Z" style="fill: #333"/>
      <path d="M117.84,30.6a9.38,9.38,0,1,1-16-6.63,9.38,9.38,0,0,1,16,6.63Zm-15.09,0a5.67,5.67,0,0,0,5.71,5.71,5.65,5.65,0,0,0,4.08-1.66,5.49,5.49,0,0,0,1.68-4,5.74,5.74,0,0,0-5.76-5.76,5.49,5.49,0,0,0-4,1.68A5.61,5.61,0,0,0,102.75,30.6Z" style="fill: #333"/>
      <path d="M140,30.6A9.37,9.37,0,0,1,130.61,40a9,9,0,0,1-5.73-2V49.86h-3.67V30.57a9.38,9.38,0,0,1,18.76,0Zm-15.09,0a5.67,5.67,0,0,0,5.71,5.71,5.61,5.61,0,0,0,4.07-1.66,5.46,5.46,0,0,0,1.69-4,5.75,5.75,0,0,0-5.76-5.76,5.49,5.49,0,0,0-4,1.68A5.61,5.61,0,0,0,124.88,30.6Z" style="fill: #333"/>
      <path d="M147,21.22v1.93a9.44,9.44,0,0,1,10.75-.48l-2.7,2.7a5.18,5.18,0,0,0-2.31-.53,5.5,5.5,0,0,0-4.07,1.68A5.58,5.58,0,0,0,147,30.57V40h-3.66V21.22Z" style="fill: #333"/>
      <path d="M176.22,30.57V40H172.6V38a9.37,9.37,0,0,1-15.13-7.4,9.38,9.38,0,0,1,18.75,0Zm-15.09,0a5.67,5.67,0,0,0,5.71,5.71,5.65,5.65,0,0,0,4.08-1.66,5.49,5.49,0,0,0,1.68-4,5.74,5.74,0,0,0-5.76-5.76,5.49,5.49,0,0,0-4.05,1.68A5.61,5.61,0,0,0,161.13,30.6Z" style="fill: #333"/>
      <path d="M185,15v6.27h5.74v3.62H185v5.73a5.69,5.69,0,0,0,5.74,5.74V40a9.37,9.37,0,0,1-9.4-9.4V24.84h-3.66V21.22h3.66V15Z" style="fill: #333"/>
      <path d="M212.08,21.22v3.62H198.83A1.81,1.81,0,0,0,197,26.67V27a1.68,1.68,0,0,0,.53,1.28,1.82,1.82,0,0,0,1.3.5h7.81a5.19,5.19,0,0,1,3.85,1.62,5.32,5.32,0,0,1,1.59,3.88v.24a5.34,5.34,0,0,1-1.59,3.88A5.18,5.18,0,0,1,206.64,40H193.33V36.31h13.31a1.81,1.81,0,0,0,1.83-1.83v-.24a1.81,1.81,0,0,0-1.83-1.83h-7.81a5.53,5.53,0,0,1-5.5-5.45v-.29A5.21,5.21,0,0,1,195,22.81a5.32,5.32,0,0,1,3.88-1.59Z" style="fill: #333"/>
      <path d="M220.09,21.22v9.35a5.67,5.67,0,0,0,5.71,5.74,5.61,5.61,0,0,0,4.07-1.66,5.49,5.49,0,0,0,1.69-4.08V21.22h3.62V40a9.1,9.1,0,0,1-2.75,6.63,9,9,0,0,1-6.61,2.77V45.71A5.72,5.72,0,0,0,231.56,40V38a9.38,9.38,0,0,1-15.14-7.43V21.22Z" style="fill: #333"/>
      <path d="M258.27,30.57V40h-3.62V38a9.38,9.38,0,0,1-15.14-7.4,9.38,9.38,0,0,1,18.76,0Zm-15.09,0a5.67,5.67,0,0,0,5.71,5.71A5.61,5.61,0,0,0,253,34.65a5.46,5.46,0,0,0,1.69-4,5.75,5.75,0,0,0-5.76-5.76,5.49,5.49,0,0,0-4,1.68A5.61,5.61,0,0,0,243.18,30.6Z" style="fill: #333"/>
    </g>
    <path d="M44.16,15.36A13.77,13.77,0,0,1,49,23.71a18.64,18.64,0,0,1-.14,5.5H27.06a8.64,8.64,0,0,0,12.58,4.12l3.91,3.9A13.94,13.94,0,0,1,26.26,37a13.85,13.85,0,0,1-4.91-7.81,7.43,7.43,0,0,1-.22-1v-.07A14.2,14.2,0,0,1,21,26a12.92,12.92,0,0,1,.21-2.32,13.21,13.21,0,0,1,2.5-6A14.2,14.2,0,0,1,35.09,12,13.58,13.58,0,0,1,44.16,15.36ZM26.77,23.71H43.33a8.19,8.19,0,0,0-3-4.52,8.4,8.4,0,0,0-5.24-1.77,8.27,8.27,0,0,0-5.21,1.77A8.68,8.68,0,0,0,26.77,23.71Z" style="fill: #3779c1"/>
  </g>
</svg>
