<svg enable-background="new 0 0 112 107" viewBox="0 0 112 107" xmlns="http://www.w3.org/2000/svg"><circle cx="75.28" cy="54.07" fill="#d6d648" r="12.79"/><g fill="#fff"><path d="m22.52 53.48c0-9.75.04-19.49-.03-29.24-.02-2.58 1.69-4.45 4.26-4.23.67.05 1.34 0 2.01 0 13.22 0 26.44 0 39.66.01.59 0 1.22.01 1.77.19 1.42.45 2.33 1.44 2.48 2.95.12 1.14.08 2.29.09 3.44.01 2.87 0 5.75 0 8.62v.29c-.06.75-.5 1.19-1.17 1.19-.7 0-1.16-.47-1.16-1.26-.01-2.83-.01-5.65-.01-8.48 0-1.01.01-2.01 0-3.02-.01-1.07-.52-1.6-1.58-1.6-6.47-.01-12.93 0-19.4 0-7.4 0-14.8 0-22.2 0-.31 0-.62 0-.93.01-.89.04-1.42.55-1.46 1.45-.03.69-.01 1.39-.01 2.08v56.75.36c.02 1.2.52 1.69 1.73 1.69h14.51 27.37c1.59 0 1.97-.39 1.97-2.01 0-3.54 0-7.09 0-10.63 0-.17-.01-.34 0-.5.04-.74.47-1.2 1.14-1.21.68-.01 1.17.42 1.19 1.16.04 1.12.02 2.25.02 3.38 0 2.68-.05 5.37.01 8.05s-1.95 4.12-4.11 4.12c-14.01-.06-28.02-.03-42.03-.03-2.69 0-4.11-1.42-4.11-4.12-.01-9.82 0-19.62-.01-29.41z"/><path d="m47.64 24.79h18.68c1.3 0 1.63.32 1.63 1.59v11.21c0 1.14-.36 1.51-1.49 1.51-12.55 0-25.1 0-37.65 0-1.12 0-1.5-.39-1.5-1.52 0-3.76 0-7.52 0-11.28 0-1.13.38-1.51 1.51-1.51zm-17.94 11.93h35.89c0-3.2 0-6.35 0-9.54-11.98 0-23.92 0-35.89 0z"/><path d="m89.5 53.51c0 7.94-6.39 14.33-14.33 14.33-7.92 0-14.35-6.43-14.34-14.35s6.43-14.34 14.36-14.33c7.94 0 14.31 6.39 14.31 14.35zm-14.31 11.98c6.65-.02 12.01-5.38 12-12.02-.01-6.62-5.4-11.98-12.05-11.97-6.62.01-11.99 5.42-11.96 12.05.03 6.61 5.41 11.96 12.01 11.94z"/><path d="m39.21 47.46v4.59c0 1.03-.39 1.42-1.44 1.42-3.01 0-6.03 0-9.04 0-.99 0-1.41-.41-1.41-1.38-.01-3.06-.01-6.12 0-9.18 0-.91.41-1.33 1.31-1.33 3.09-.01 6.17-.01 9.26 0 .95 0 1.32.4 1.33 1.38-.01 1.49-.01 2.99-.01 4.5zm-9.51 3.61h7.09c.05-.09.09-.13.09-.17.01-2.2.01-4.4.03-6.6 0-.44-.28-.42-.58-.42-1.46 0-2.92 0-4.38 0-.73 0-1.47 0-2.24 0-.01 2.43-.01 4.77-.01 7.19z"/><path d="m53.58 61.93c0 1.53.01 3.06 0 4.59-.01.9-.41 1.31-1.32 1.31-3.08.01-6.17.01-9.25 0-.89 0-1.31-.44-1.31-1.34-.01-3.08-.01-6.17 0-9.25 0-.85.43-1.31 1.27-1.31 3.13-.01 6.27-.01 9.4 0 .83 0 1.22.42 1.22 1.26 0 1.58-.01 3.16-.01 4.74zm-9.51 3.47c.12.04.19.08.25.08 2.15.01 4.31 0 6.46.02.38 0 .49-.16.49-.52-.01-2.06-.01-4.12 0-6.17 0-.45-.16-.57-.59-.57-1.55.02-3.11.01-4.67.01-.64 0-1.28 0-1.95 0 .01 2.43.01 4.77.01 7.15z"/><path d="m39.21 76.28c0 1.53.01 3.07 0 4.6 0 .89-.42 1.33-1.32 1.33-3.09.01-6.18.01-9.27 0-.89 0-1.31-.44-1.31-1.34-.01-3.07-.01-6.13 0-9.2 0-.91.4-1.35 1.3-1.35 3.14-.02 6.27-.02 9.41 0 .79 0 1.18.43 1.19 1.22.01 1.58 0 3.16 0 4.74zm-9.48-3.67v7.2h7.05c.05-.09.09-.13.09-.17.01-2.2.01-4.4.03-6.6 0-.43-.26-.43-.57-.43-1.41 0-2.82 0-4.23 0-.79 0-1.57 0-2.37 0z"/><path d="m67.95 76.2v4.59c0 1-.39 1.41-1.37 1.41-3.04.01-6.07.01-9.11 0-.99 0-1.41-.41-1.41-1.39-.01-3.06-.01-6.12 0-9.18 0-.91.41-1.33 1.31-1.33 3.09-.01 6.17-.01 9.26 0 .95 0 1.32.41 1.32 1.38zm-2.41 3.62c.04-.11.09-.17.09-.24.01-2.18 0-4.35.01-6.53 0-.43-.25-.44-.56-.44-1.32 0-2.63 0-3.95 0-.88 0-1.76 0-2.66 0v7.21z"/><path d="m53.58 76.28v4.52c0 1-.39 1.41-1.37 1.41-3.04.01-6.07.01-9.11 0-1.01 0-1.41-.42-1.41-1.46 0-2.97 0-5.93 0-8.9 0-1.18.36-1.55 1.53-1.55 2.97-.01 5.93-.01 8.9 0 1.1 0 1.47.37 1.47 1.46-.01 1.5-.01 3.01-.01 4.52zm-9.52-3.67v7.2h7.08c.05-.09.09-.13.09-.17.01-2.2.01-4.4.03-6.6 0-.43-.27-.44-.57-.44-1.24 0-2.49.01-3.73.01-.95 0-1.9 0-2.9 0z"/><path d="m39.21 61.84c0 1.55.01 3.11 0 4.66 0 .91-.41 1.33-1.3 1.33-3.08.01-6.17.01-9.25-.01-.93 0-1.34-.43-1.34-1.38-.01-3.04-.01-6.07 0-9.11 0-.99.4-1.4 1.39-1.4 3.04-.01 6.07-.01 9.11 0 1.01 0 1.39.39 1.39 1.39zm-2.36-3.55c-2.43 0-4.76 0-7.12 0v7.17h7.12c0-2.41 0-4.76 0-7.17z"/><path d="m53.58 47.51c0 1.53.01 3.06 0 4.59 0 .95-.41 1.37-1.34 1.37-3.09.01-6.17 0-9.26-.01-.85 0-1.29-.43-1.29-1.28-.01-3.11-.01-6.22 0-9.33 0-.86.42-1.29 1.28-1.29 3.11-.01 6.22-.01 9.33 0 .9 0 1.28.43 1.29 1.35-.01 1.54-.01 3.07-.01 4.6zm-9.55 3.61c2.35 0 4.6.01 6.84-.03.14 0 .38-.38.38-.58.03-1.98.01-3.97.03-5.96.01-.52-.15-.71-.69-.7-1.94.03-3.87.01-5.81.01-.23 0-.46.02-.75.03v.79z"/><path d="m58.4 65.49h2.97c.26 0 .53-.01.79.03.64.1 1.04.58 1.02 1.19-.02.6-.46 1.1-1.1 1.11-1.63.03-3.26.03-4.88 0-.68-.01-1.13-.46-1.13-1.15-.02-3.21-.02-6.41 0-9.62 0-.69.5-1.12 1.15-1.12.7 0 1.16.45 1.17 1.26.02 1.84.01 3.69.01 5.53z"/><path d="m58.4 43.87v.87 6.97c0 .19.01.38-.01.57-.07.73-.54 1.19-1.19 1.18s-1.13-.49-1.14-1.22c-.02-1.15-.01-2.3-.01-3.45 0-1.94-.01-3.88 0-5.82 0-1 .39-1.39 1.39-1.4 1.48-.01 2.97-.01 4.45 0 .79.01 1.28.46 1.28 1.14s-.49 1.14-1.27 1.15c-1.12.02-2.24.01-3.5.01z"/></g><path d="m77.65 57.46c.7-.32 1.34-.75 1.9-1.29l1.96 2.18c-.78.82-1.71 1.47-2.8 1.96s-2.19.73-3.3.73c-1.24 0-2.38-.24-3.43-.72s-1.94-1.15-2.67-2-1.24-1.84-1.53-2.94h-2.05v-1.38h1.81c-.01-.14-.02-.37-.02-.67 0-.22.01-.38.02-.5h-1.81v-1.38h2c.27-1.12.78-2.12 1.53-2.99s1.66-1.55 2.75-2.04c1.08-.49 2.27-.73 3.55-.73 1.09 0 2.17.22 3.23.67s1.97 1.06 2.72 1.83l-1.96 2.41c-.53-.6-1.15-1.08-1.85-1.43s-1.4-.53-2.09-.53c-.96 0-1.83.26-2.59.77s-1.31 1.19-1.66 2.04h5.17v1.38h-5.5c-.01.1-.02.25-.02.45 0 .16.01.4.04.71h5.48v1.38h-5.04c.37.78.93 1.4 1.66 1.86.73.47 1.55.7 2.46.7.65 0 1.34-.16 2.04-.47z" fill="#4679bc"/></svg>