<svg enable-background="new 0 0 112 107" viewBox="0 0 112 107" xmlns="http://www.w3.org/2000/svg"><path d="m7.98 36.98c.58-1.14 1.59-1.42 2.75-1.28.88.1 1.28-.17 1.51-1.11.98-4.07 3.54-6.01 7.75-6.02 2.75 0 5.5-.01 8.25 0 3.88.02 6.58 2.07 7.44 5.82.25 1.08.67 1.33 1.73 1.32 5.41-.06 10.81-.02 16.22-.03 17.25-.02 32.19 5.81 44.78 17.63.84.79 1.68 1.59 2.52 2.39 1.61 1.54 2.67 3.36 2.92 5.61.02.15.1.29.16.43v1.31c-.05.11-.14.22-.15.33-.4 4.12-3.96 7.92-9.36 7.91-28.02-.03-56.04-.02-84.05-.01-1.09 0-1.95-.29-2.47-1.3 0-10.99 0-21.99 0-33zm35.63 16.5c.4.03.71.06 1.02.07 9.21.3 17.94 2.55 26.29 6.39 5.56 2.55 11.17 4.98 16.76 7.45.39.17.83.31 1.24.32 2 .03 4 .05 6 .01 2.38-.05 4.16-1.14 5.05-3.37.89-2.22.38-4.27-1.35-5.9-2.23-2.1-4.52-4.13-6.83-6.13-.4-.35-1.05-.56-1.59-.57-5.65-.07-11.31-.01-16.97-.15-5.43-.14-10.6-1.54-15.55-3.75-4.53-2.01-8.42-4.99-12.28-8.01-.42-.33-1.06-.56-1.59-.56-10.41-.03-20.81-.02-31.22-.02-.33 0-.66 0-1.01 0v14.16h17.75c0-.6-.01-1.13 0-1.66.08-3.05 2.2-5.24 5.25-5.37 1.25-.05 2.5-.06 3.75 0 2.83.14 4.83 2.05 5.15 4.87.09.7.09 1.42.13 2.22zm35.76 14.21c-11.49-5.43-22.78-10.79-35.73-10.51v10.51zm-28.75-28.38c.39.31.63.54.9.72 1.61 1.07 3.18 2.21 4.86 3.16 5.08 2.86 10.55 4.53 16.37 4.83 4.02.2 8.06.11 12.09.15.24 0 .47-.02.99-.05-10.93-6.67-22.57-9.31-35.21-8.81zm-32.16 17.76c.02.16.01.23.04.28 2.06 3.31 4.13 6.62 6.21 9.92.13.2.41.43.63.43 1.3.04 2.6.02 3.92.02 0-3.62 0-7.12 0-10.65-3.63 0-7.19 0-10.8 0zm14.49.01v10.6h6.99c0-3.55 0-7.06 0-10.6-2.35 0-4.62 0-6.99 0zm-12.17 10.62c-2.22-3.55-4.35-6.96-6.49-10.36-.09-.15-.35-.27-.53-.28-.71-.03-1.42-.01-2.14-.01v10.65zm-5.06-32.08h16.59c-.43-2.22-1.55-3.41-3.49-3.46-3.21-.08-6.42-.07-9.64 0-1.99.04-3.33 1.47-3.46 3.46zm17.22 17.82h7.07c0-.48.01-.91 0-1.33-.05-1.49-.71-2.15-2.19-2.17-.65-.01-1.31 0-1.96 0-2.58 0-3.01.43-2.95 2.98 0 .14.01.29.03.52z" fill="#fff"/><g fill="#d6d648"><path d="m7.98 74.87c.31-.01.62-.03.94-.03h94.16c.31 0 .62.02.94.03v3.56c-.34-.01-.69-.03-1.03-.03-31.32 0-62.65 0-93.97 0-.34 0-.69.02-1.03.03-.01-1.19-.01-2.37-.01-3.56z"/><path d="m15.16 42.86h3.45v3.44c-1.14 0-2.27 0-3.45 0 0-1.13 0-2.24 0-3.44z"/><path d="m25.74 42.86v3.45c-1.15 0-2.26 0-3.44 0 0-1.13 0-2.26 0-3.45z"/><path d="m93.29 58.87v3.44c-1.15 0-2.25 0-3.44 0 0-1.13 0-2.25 0-3.44z"/></g></svg>