<svg enable-background="new 0 0 112 107" viewBox="0 0 112 107" xmlns="http://www.w3.org/2000/svg"><path d="m89.11 42.86c0-13.19-11.19-24.34-24.44-24.34-13.47 0-24.42 10.78-24.42 24.02 0 13.39 11.18 24.7 24.42 24.7s24.44-11.16 24.44-24.38zm-24.44 22.8c-12.38 0-22.85-10.59-22.85-23.12 0-12.38 10.25-22.44 22.85-22.44 12.39 0 22.86 10.42 22.86 22.76 0 12.36-10.47 22.8-22.86 22.8z" fill="#d6d648"/><path d="m45.78 68.32-.76-.76 2.8-2.8c4.67 3.6 10.51 5.75 16.85 5.75 15.24 0 27.64-12.4 27.64-27.64s-12.4-27.64-27.64-27.64-27.64 12.4-27.64 27.64c0 8.33 3.71 15.81 9.57 20.88l-2.69 2.69-.76-.76c-1.03-1.03-2.71-1.03-3.74 0l-18.94 18.95c-1.03 1.03-1.03 2.71 0 3.74l2.63 2.63c.52.52 1.19.77 1.87.77s1.35-.26 1.87-.77l1.97-1.97 16.97-16.97c1.03-1.03 1.03-2.71 0-3.74zm-7.18-25.45c0-14.37 11.69-26.06 26.06-26.06s26.07 11.69 26.07 26.06-11.69 26.06-26.06 26.06-26.07-11.69-26.07-26.06zm-12.88 47.01c-.42.42-1.09.42-1.51 0l-2.63-2.63c-.42-.42-.42-1.09 0-1.51l1.41-1.41 4.14 4.14zm18.94-18.94-16.41 16.41-4.14-4.14 16.41-16.41c.41-.41 1.09-.41 1.51 0l2.63 2.63c.42.42.42 1.1 0 1.51z" fill="#d6d648"/><path d="m69.01 50.99c1.48-.66 2.81-1.57 3.99-2.72l4.12 4.58c-1.63 1.72-3.6 3.1-5.89 4.12-2.3 1.03-4.61 1.54-6.93 1.54-2.6 0-5-.51-7.21-1.52s-4.08-2.42-5.62-4.21c-1.54-1.8-2.61-3.86-3.22-6.19h-4.31v-2.9h3.81c-.03-.3-.05-.77-.05-1.41 0-.45.01-.8.05-1.04h-3.81v-2.9h4.21c.57-2.36 1.65-4.45 3.22-6.28s3.5-3.26 5.78-4.28c2.28-1.03 4.77-1.54 7.46-1.54 2.3 0 4.56.47 6.8 1.41s4.14 2.22 5.71 3.85l-4.12 5.08c-1.12-1.27-2.42-2.27-3.9-3.01s-2.95-1.11-4.4-1.11c-2.02 0-3.84.54-5.44 1.61s-2.76 2.5-3.49 4.28h10.88v2.9h-11.55c-.03.21-.05.53-.05.95 0 .33.03.83.09 1.5h11.51v2.9h-10.6c.79 1.63 1.95 2.94 3.49 3.92s3.26 1.47 5.17 1.47c1.38 0 2.82-.34 4.3-1z" fill="#fff"/></svg>