<svg clip-rule="evenodd" fill-rule="evenodd" stroke-linejoin="round" stroke-miterlimit="1.4142" viewBox="0 0 432 90" xmlns="http://www.w3.org/2000/svg"><path d="m408.153 62.195c-1.509 1.972-4.41 3.712-8.12 3.712-3.715 0-6.616-1.74-8.123-3.712-1.857-2.437-3.018-5.106-3.018-20.191s1.161-17.869 3.018-20.307c1.507-1.972 4.408-3.597 8.123-3.597 3.71 0 6.611 1.625 8.12 3.597 1.859 2.438 3.018 5.222 3.018 20.307s-1.159 17.754-3.018 20.191m14.97-52.914c-6.035-6.033-12.997-9.281-23.09-9.281-10.096 0-17.057 3.248-23.093 9.281-8.702 8.703-8.356 20.307-8.356 32.723s-.346 24.019 8.356 32.722c3.189 3.188 6.641 5.59 10.674 7.155-.199 1.665-1.168 4.017-3.914 7.185-1.915 2.208 26.191-6.32 26.191-6.32l-.014-.001c5.171-1.464 9.399-4.174 13.246-8.019 8.702-8.703 8.354-20.306 8.354-32.722s.348-24.02-8.354-32.723m-78.133 74.033h-16.593l-13.345-40.73-13.345 40.73h-16.476l-22.744-82.619h21.235l10.793 43.629 13.342-43.629h14.388l13.346 43.629 10.791-43.629h21.232zm-109.06-64.517v64.517h-20.307v-64.517h-26.513l7.977-18.102h59.148v18.102zm-70.167 30.866v33.651h-20.305v-33.651l-24.949-48.968h22.163l12.997 29.706 12.881-29.706h22.161zm-67.034-17.639-7.429 22.048h14.389zm16.128 51.29-3.829-12.3h-25.413l-4.061 12.3h-21.234l30.054-82.619h15.666l30.051 82.619zm-75.868-59.876c-1.858-2.784-4.642-4.641-9.748-4.641h-8.934v46.414h8.934c5.106 0 7.89-1.855 9.748-4.641 1.623-2.32 2.204-4.525 2.204-18.566 0-13.925-.581-16.246-2.204-18.566m13.924 51.753c-5.686 5.685-13.692 8.123-22.279 8.123h-30.634v-82.619h30.634c8.587 0 16.593 2.437 22.279 8.123 9.631 9.631 8.586 20.19 8.586 33.186 0 12.997 1.045 23.555-8.586 33.187" fill-rule="nonzero"/></svg>