<svg height="283.465" viewBox="0 0 283.465 283.465" width="283.465" xmlns="http://www.w3.org/2000/svg" xmlns:xlink="http://www.w3.org/1999/xlink"><clipPath id="a"><path d="m124.332 132.71h8.578c4.89 0 7.12 2.486 7.12 6.346s-2.23 6.35-7.12 6.35h-8.578zm-13.64-11.582v52.672h13.64v-17.415h4.804l10.98 17.415h15.27l-12.353-18.873c6.434-2.402 10.466-7.892 10.466-15.87 0-11.495-7.807-17.93-19.13-17.93h-23.677z"/></clipPath><linearGradient id="b"><stop offset="0" stop-color="#64c8ff"/><stop offset="1" stop-color="#005aa0"/></linearGradient><linearGradient id="c" gradientTransform="matrix(283.228 283.228 283.228 -283.228 -80295.586 80295.172)" gradientUnits="userSpaceOnUse" x2="1" xlink:href="#b" y1="283.476" y2="283.476"/><clipPath id="d"><path d="m164.218 121.127h13.812v52.673h-13.812z"/></clipPath><linearGradient id="e" gradientTransform="matrix(283.228 283.228 283.228 -283.228 -80273.586 80273.172)" gradientUnits="userSpaceOnUse" x2="1" xlink:href="#b" y1="283.465" y2="283.465"/><clipPath id="f"><path d="m236.957 147.635c0 15.87 10.295 27.023 26.766 27.023 7.29 0 14.068-2.146 19.388-7.035v-23.248h-19.816v10.98h7.635v5.147c-1.717 1.286-4.03 1.888-6.776 1.888-7.98 0-13.383-5.834-13.383-14.756 0-9.093 5.92-14.67 14.326-14.67 6.435 0 11.238 1.888 15.27 4.805v-13.384c-3.86-2.487-9.437-4.117-15.27-4.117-16.73 0-28.14 10.81-28.14 27.365"/></clipPath><linearGradient id="g" gradientTransform="matrix(283.228 283.228 283.228 -283.228 -80227.086 80226.75)" gradientUnits="userSpaceOnUse" x2="1" xlink:href="#b" y1="283.458" y2="283.458"/><clipPath id="h"><path d="m190.21 121.128v52.672h37.658v-11.804h-24.105v-9.275h22.047v-11.458h-22.047v-8.417h24.105v-11.717z"/></clipPath><linearGradient id="i" gradientTransform="matrix(283.228 283.228 283.228 -283.228 -80254.586 80254.219)" gradientUnits="userSpaceOnUse" x2="1" xlink:href="#b" y1="283.465" y2="283.465"/><clipPath id="j"><path d="m53.307 147.63c0 15.87 10.294 27.02 26.764 27.02 7.293 0 14.07-2.142 19.388-7.032v-23.248h-19.816v10.858h7.634v5.27c-1.715 1.287-4.032 1.887-6.776 1.887-7.977 0-13.382-5.833-13.382-14.755 0-7.03 3.693-11.916 8.906-14.03 3.642-1.475 8.028-1.192 11.01-.754 2.455.36 6.293 1.305 9.68 2.905v-11.957c-5.124-2.67-9.437-3.527-15.27-3.527-16.728 0-28.137 10.808-28.137 27.364"/></clipPath><linearGradient id="k" gradientTransform="matrix(283.228 283.228 283.228 -283.228 -80318.586 80318.422)" gradientUnits="userSpaceOnUse" x2="1" xlink:href="#b" y1="283.457" y2="283.457"/><clipPath id="l"><path d="m0 0v283.465h283.465v-96.195h-28.347v67.85h-226.772v-226.774h253.7v-28.346z"/></clipPath><linearGradient id="m" gradientTransform="matrix(283.465 283.465 283.465 -283.465 -80352.742 80352.594)" gradientUnits="userSpaceOnUse" x2="1" xlink:href="#b" y1="283.467" y2="283.467"/><path clip-path="url(#a)" d="m133.04 98.78 48.683 48.684-48.683 48.682-48.683-48.682z" fill="url(#c)"/><path clip-path="url(#d)" d="m171.123 114.22 33.242 33.243-33.242 33.242-33.242-33.242z" fill="url(#e)"/><path clip-path="url(#f)" d="m260.033 97.193 50.27 50.27-50.27 50.27-50.27-50.27z" fill="url(#g)"/><path clip-path="url(#h)" d="m209.038 102.298 45.166 45.166-45.166 45.165-45.165-45.166z" fill="url(#i)"/><path clip-path="url(#j)" d="m76.382 97.19 50.27 50.27-50.27 50.268-50.268-50.27z" fill="url(#k)"/><path clip-path="url(#l)" d="m141.732-141.732 283.465 283.464-283.465 283.465-283.464-283.465z" fill="url(#m)"/></svg>