<svg enable-background="new 0 0 512 512" height="512" viewBox="0 0 512 512" width="512" xmlns="http://www.w3.org/2000/svg"><path d="m434.949 16.75h-357.904c-32.893 0-59.648 26.831-59.648 59.812v358.871c0 32.985 26.756 59.816 59.648 59.816h357.904c32.898 0 59.654-26.831 59.654-59.816v-358.87c.001-32.982-26.755-59.813-59.654-59.813zm0 0" fill="#1b80e4"/><path d="m420.039 256h-74.564v-59.813c0-16.51 13.365-14.951 29.824-14.951h29.83v-74.768h-59.654c-49.42 0-89.473 40.162-89.473 89.719v59.813h-59.65v74.766h59.65v164.484h89.473v-164.484h44.738zm0 0" fill="#fcfcfc"/></svg>