<svg enable-background="new 0 0 64 64" viewBox="0 0 64 64" xmlns="http://www.w3.org/2000/svg"><circle cx="32" cy="32" fill="#ff4500" r="30"/><path d="m52 32c0-2.210022-1.789978-4-4-4-1.4500122 0-2.7199707.7699585-3.4199829 1.9299927-2.8978882-2.2456055-6.9917603-3.7012939-11.5726929-3.8917847l1.8012695-10.8057861 6.9492188 1.7373047c.0822754.020813.1628418.0117188.2440796.0114746-.000061.0064087-.0018921.0123291-.0018921.0187988 0 1.6568604 1.3431396 3 3 3s3-1.3431396 3-3-1.3431396-3-3-3c-.9818726 0-1.845459.4785156-2.3927612 1.2077026-.1055298-.0809326-.2277832-.1431885-.3650513-.1774292l-8-2c-.2714844-.0703125-.5566406-.0205078-.7900391.1337891-.2333984.1523438-.3925781.3964844-.4384766.671875l-2 12c-.0115356.0690308.0042114.1339111.006897.2012329-4.5922241.1856689-8.6968384 1.6426392-11.6005859 3.8928223-.7000122-1.1600342-1.9699707-1.9299927-3.4199829-1.9299927-2.210022 0-4 1.789978-4 4 0 1.9599609 1.4000244 3.5799561 3.2600098 3.9299927-.1699829.6699829-.2600098 1.3599853-.2600098 2.0700073 0 6.6300049 7.6099854 12 17 12s17-5.3699951 17-12c0-.710022-.0900269-1.4000244-.2600098-2.0700073 1.8599854-.3500366 3.2600098-1.9700318 3.2600098-3.9299927zm-30 3c0-1.6568604 1.3431396-3 3-3s3 1.3431396 3 3-1.3431396 3-3 3-3-1.3431396-3-3zm17.6171875 8.4970703c-2.0605469 1.6142578-4.765625 2.5029297-7.6171875 2.5029297s-5.5566406-.8886719-7.6171875-2.5029297c-.4345703-.3408203-.5107422-.96875-.1699219-1.4042969.3408203-.4335938.96875-.5117188 1.4042969-.1699219 1.7089844 1.3398438 3.9765625 2.0771485 6.3828125 2.0771485s4.6738281-.7373047 6.3828125-2.0771484c.4355469-.3417969 1.0634766-.2636719 1.4042969.1699219.3408203.4355468.2646484 1.0634765-.1699219 1.4042968zm-.6171875-5.4970703c-1.6568604 0-3-1.3431396-3-3s1.3431396-3 3-3 3 1.3431396 3 3-1.3431396 3-3 3z" fill="#fff"/></svg>