<svg enable-background="new 0 0 32 32" height="32" viewBox="0 0 32 32" width="32" xmlns="http://www.w3.org/2000/svg"><path d="m31.993 6.077c-1.177.523-2.441.876-3.77 1.033 1.355-.812 2.396-2.098 2.887-3.63-1.269.751-2.673 1.299-4.168 1.592-1.198-1.275-2.904-2.072-4.793-2.072-3.625 0-6.562 2.938-6.562 6.563 0 .514.057 1.016.169 1.496-5.455-.274-10.291-2.887-13.529-6.858-.564.97-.888 2.097-.888 3.3 0 2.278 1.159 4.286 2.919 5.464-1.075-.035-2.087-.329-2.972-.821-.001.027-.001.056-.001.082 0 3.181 2.262 5.834 5.265 6.437-.55.149-1.13.23-1.729.23-.424 0-.834-.041-1.234-.117.834 2.606 3.259 4.504 6.13 4.558-2.245 1.76-5.075 2.811-8.15 2.811-.53 0-1.053-.031-1.566-.092 2.904 1.86 6.354 2.947 10.061 2.947 12.072 0 18.675-10.001 18.675-18.675 0-.284-.008-.568-.02-.85 1.283-.925 2.395-2.08 3.276-3.398z" fill="#55acee"/></svg>