<svg enable-background="new 0 0 24 24" viewBox="0 0 24 24" xmlns="http://www.w3.org/2000/svg" xmlns:xlink="http://www.w3.org/1999/xlink"><linearGradient id="a" gradientUnits="userSpaceOnUse" x1="7.505491" x2="19.958166" y1="8.542789" y2="20.995464"><stop offset="0" stop-color="#010101" stop-opacity=".1"/><stop offset="1" stop-color="#010101" stop-opacity="0"/></linearGradient><linearGradient id="b" gradientUnits="userSpaceOnUse" x1=".28825" x2="22.044832" y1="8.714715" y2="18.859976"><stop offset="0" stop-color="#fff" stop-opacity=".2"/><stop offset="1" stop-color="#fff" stop-opacity="0"/></linearGradient><path d="m12 0c-6.6274414 0-12 5.3725586-12 12 0 2.4573975.7415161 4.7402954 2.0089722 6.6427612l-2.0089722 5.3572388 5.3572388-2.0089722c1.9024048 1.2673951 4.1853637 2.0089722 6.6427612 2.0089722 6.6274414 0 12-5.3726196 12-12 0-6.6274414-5.3725586-12-12-12z" fill="#31b34a"/><path d="m17.7207031 14.0512695c-.0009766-.0004883-1.2246094-.6015625-1.9921875-.9960938-.8647461-.4438477-1.8867188.3901367-2.3681641.8657227-.4355469-.1694336-1.300293-.5678711-2.0068359-1.2744141s-1.1049805-1.5712891-1.2744141-2.0068359c.4760742-.480957 1.3110352-1.5004883.8657227-2.3681641-.3945312-.767578-.9956054-1.9912109-.9960937-1.9921874-.0839844-.1708985-.2583008-.2792969-.4487305-.2792969h-1c-1.1254883 0-2.5 1.3842773-2.5 3 0 1.5703125 1.8793945 4.5864258 3.1464844 5.8535156s4.2832031 3.1464844 5.8535156 3.1464844c1.6157227 0 3-1.3745117 3-2.5v-1c0-.1904297-.1083984-.3647461-.2792969-.4487305z" fill="#fff"/><path d="m12 .25c6.5852661 0 11.9259644 5.3058472 11.9937134 11.875.0004272-.0421143.0062866-.0828247.0062866-.125 0-6.6274414-5.3725586-12-12-12s-12 5.3725586-12 12c0 .0482178.0048218.0952148.0053711.1432495.0579834-6.5776977 5.4032593-11.8932495 11.9946289-11.8932495z" fill="#fff" opacity=".2"/><path d="m12 23.75c-2.4573975 0-4.7403564-.7415771-6.6427612-2.0089722l-5.2481689 1.9680786-.1090699.2908936 5.3572388-2.0089722c1.9024048 1.2673951 4.1853637 2.0089722 6.6427612 2.0089722 6.6274414 0 12-5.3726196 12-12 0-.0421753-.0058594-.0828857-.0062866-.125-.067749 6.5691528-5.4084473 11.875-11.9937134 11.875z" fill="#010101" opacity=".1"/><path d="m11.3535156 12.8964844c.706543.706543 1.5712891 1.1049805 2.0068359 1.2744141.4814453-.4755859 1.503418-1.3095703 2.3681641-.8657227.7675781.3945313 1.9912109.9956055 1.9921875.9960938.1708985.0839843.2792969.2583007.2792969.4487304v-.25c0-.1904297-.1083984-.3647461-.2792969-.4487305-.0009766-.0004883-1.2246094-.6015625-1.9921875-.9960938-.8647461-.4438477-1.8867188.3901367-2.3681641.8657227-.4355469-.1694336-1.300293-.5678711-2.0068359-1.2744141-.6304321-.6304321-1.0046387-1.3703003-1.2006226-1.8353271-.024353.0255127-.0509033.0554199-.0737915.0784912.1694337.4355469.5678712 1.300293 1.2744141 2.006836z" fill="#fff" opacity=".2"/><path d="m10.9448242 8.2714844c-.3945312-.7675781-.9956054-1.991211-.9960937-1.9921875-.0839844-.1708985-.2583008-.2792969-.4487305-.2792969h-1c-1.1254883 0-2.5 1.3842773-2.5 3 0 .0336914.0125732.0766602.0142822.1116943.0764771-1.5545044 1.3930664-2.8616943 2.4857178-2.8616943h1c.1904297 0 .3647461.1083984.4487305.2792969.0004883.0009766.6015625 1.2246094.9960938 1.9921875.0747681.145752.1030884.2960815.1134033.4470825.0288696-.2345581.0026855-.4708862-.1134034-.6970825z" fill="#fff" opacity=".2"/><path d="m9.1464844 14.8535156c1.2670898 1.2670899 4.2832031 3.1464844 5.8535156 3.1464844 1.6157227 0 3-1.3745117 3-2.5v-.25c0 1.1254883-1.3842773 2.5-3 2.5-1.5703125 0-4.5864258-1.8793945-5.8535156-3.1464844-1.2398682-1.2398682-3.0543823-4.145874-3.1322021-5.7418213-.0023194.0466919-.0142823.0911866-.0142823.1383057 0 1.5703125 1.8793945 4.5864258 3.1464844 5.8535156z" fill="#010101" opacity=".1"/><path d="m9.8764648 6.171814-.0032348.0240478c.0241089.0293579.0582886.0484619.0755005.0834351.0004883.0009766.6015625 1.2246094.9960938 1.9921875.4453125.8676758-.3896484 1.887207-.8657227 2.3681641.1694336.4355469.5678711 1.300293 1.2744141 2.0068359s1.5712891 1.1049805 2.0068359 1.2744141c.4814453-.4755859 1.503418-1.3095703 2.3681641-.8657227.7675781.3945313 1.9912109.9956055 1.9921875.9960938.1708984.0839843.2792968.2583007.2792968.4487304v1c0 1.1254883-1.3842773 2.5-3 2.5-1.5010376 0-4.3063354-1.7120972-5.6590576-2.9703369 1.5604248 1.5985718 5.8561401 5.9893799 7.7504883 7.824707 2.0710449-.9733887 3.8158569-2.5160522 5.0343018-4.4332886z" fill="url(#a)"/><path d="m12 0c-6.6274414 0-12 5.3725586-12 12 0 2.4573975.7415161 4.7402954 2.0089722 6.6427612l-2.0089722 5.3572388 5.3572388-2.0089722c1.9024048 1.2673951 4.1853637 2.0089722 6.6427612 2.0089722 6.6274414 0 12-5.3726196 12-12 0-6.6274414-5.3725586-12-12-12z" fill="url(#b)"/></svg>