<svg enable-background="new 0 0 24 24" viewBox="0 0 24 24" xmlns="http://www.w3.org/2000/svg" xmlns:xlink="http://www.w3.org/1999/xlink"><linearGradient id="a" gradientUnits="userSpaceOnUse" x1="1.124919" x2="22.875082" y1="6.928866" y2="17.071135"><stop offset="0" stop-color="#fff" stop-opacity=".2"/><stop offset="1" stop-color="#fff" stop-opacity="0"/></linearGradient><g fill="#676767"><path d="m12 0c-6.6166992 0-12 5.3833008-12 12s5.3833008 12 12 12 12-5.3833008 12-12-5.3833008-12-12-12zm0 23c-6.0654297 0-11-4.9345703-11-11s4.9345703-11 11-11 11 4.9345703 11 11-4.9345703 11-11 11z"/><path d="m2.8406982 8c-.5376586 1.2261963-.8406982 2.5776367-.8406982 4 0 4.0490112 2.4231567 7.5358887 5.8916626 9.1070557l-4.6148682-13.1070557z"/><path d="m8 7.5c0 .2763672-.2236328.5-.5.5h-.2884521l2.8035889 8.6972656c.5109863-1.4570923 1.0367432-2.9713135 1.4447632-4.180481l-1.5903321-4.5167846h-.3695679c-.2763672 0-.5-.2236328-.5-.5s.2236328-.5.5-.5h4.5c.2763672 0 .5.2236328.5.5s-.2236328.5-.5.5h-.1956787l2.8035889 8.6972656c.5810547-1.65625 1.1850586-3.3969727 1.6079102-4.6665039.1918945-.9594727-.5527344-2.1650391-1.2138672-3.2348633-.5141602-.8325195-.9584962-1.5517578-.9584962-2.1655273 0-1.8725586 1.0898438-2.1523438 1.7392578-2.1523438.3914795 0 .7495117.1047363 1.0784912.2663574-1.7926635-1.6961059-4.2043456-2.7443847-6.861206-2.7443847-3.6918335 0-6.9147949 2.0160522-8.6470337 5h4.1470337c.2763672 0 .5.2236328.5.5z"/><path d="m9.3314819 21.6275024c.8510132.2362671 1.7432862.3724976 2.6685181.3724976.9249878 0 1.8169556-.1361694 2.6677246-.3723145l-2.6708984-7.5859375c-.9552002 2.7809449-2.225647 6.3529053-2.6653443 7.5857544z"/><path d="m20.1228027 6.1894531c.4087524 1.2789917-.0927734 3.4560547-.6242676 5.1352539-.0864258.2739258-.1938477.6020508-.3164063.9707031-.0117188.050293-.0249023.1005859-.0400391.1508789-.0112305.0385742-.0273438.0751953-.046875.1088867-.8516846 2.5397339-2.3212891 6.6864014-2.9851074 8.5510254 3.4675905-1.5715942 5.8898927-5.0578613 5.8898927-9.1062011 0-2.1677246-.7007446-4.1707153-1.8771973-5.8105469z"/></g><path d="m12 0c-6.6166992 0-12 5.3833008-12 12s5.3833008 12 12 12 12-5.3833008 12-12-5.3833008-12-12-12z" fill="url(#a)"/></svg>